<?xml version="1.0" encoding="UTF-8" standalone="no"?>
<!DOCTYPE svg PUBLIC "-//W3C//DTD SVG 1.1//EN"
 "http://www.w3.org/Graphics/SVG/1.1/DTD/svg11.dtd">
<!-- Generated by graphviz version 2.43.0 (0)
 -->
<!-- Title: %3 Pages: 1 -->
<svg width="2167pt" height="470pt"
 viewBox="0.00 0.00 2166.50 470.00" xmlns="http://www.w3.org/2000/svg" xmlns:xlink="http://www.w3.org/1999/xlink">
<g id="graph0" class="graph" transform="scale(1 1) rotate(0) translate(4 466)">
<title>%3</title>
<polygon fill="white" stroke="transparent" points="-4,4 -4,-466 2162.5,-466 2162.5,4 -4,4"/>
<!-- node0x61d000014a80 -->
<g id="node1" class="node">
<title>node0x61d000014a80</title>
<path fill="peachpuff" stroke="black" d="M1007.5,-415.5C1007.5,-415.5 1162.5,-415.5 1162.5,-415.5 1168.5,-415.5 1174.5,-421.5 1174.5,-427.5 1174.5,-427.5 1174.5,-449.5 1174.5,-449.5 1174.5,-455.5 1168.5,-461.5 1162.5,-461.5 1162.5,-461.5 1007.5,-461.5 1007.5,-461.5 1001.5,-461.5 995.5,-455.5 995.5,-449.5 995.5,-449.5 995.5,-427.5 995.5,-427.5 995.5,-421.5 1001.5,-415.5 1007.5,-415.5"/>
<text text-anchor="middle" x="1066" y="-446.3" font-family="Times,serif" font-size="14.00">0x61d000014a80</text>
<polyline fill="none" stroke="black" points="1136.5,-438.5 1136.5,-461.5 "/>
<text text-anchor="middle" x="1155.5" y="-446.3" font-family="Times,serif" font-size="14.00">OP</text>
<polyline fill="none" stroke="black" points="995.5,-438.5 1174.5,-438.5 "/>
<text text-anchor="middle" x="1037.5" y="-423.3" font-family="Times,serif" font-size="14.00">пж&#45;пж</text>
<polyline fill="none" stroke="black" points="1079.5,-415.5 1079.5,-438.5 "/>
<text text-anchor="middle" x="1127" y="-423.3" font-family="Times,serif" font-size="14.00">PLEASE</text>
</g>
<!-- node0x61d000009680 -->
<g id="node2" class="node">
<title>node0x61d000009680</title>
<path fill="peachpuff" stroke="black" d="M797,-332.5C797,-332.5 953,-332.5 953,-332.5 959,-332.5 965,-338.5 965,-344.5 965,-344.5 965,-366.5 965,-366.5 965,-372.5 959,-378.5 953,-378.5 953,-378.5 797,-378.5 797,-378.5 791,-378.5 785,-372.5 785,-366.5 785,-366.5 785,-344.5 785,-344.5 785,-338.5 791,-332.5 797,-332.5"/>
<text text-anchor="middle" x="856" y="-363.3" font-family="Times,serif" font-size="14.00">0x61d000009680</text>
<polyline fill="none" stroke="black" points="927,-355.5 927,-378.5 "/>
<text text-anchor="middle" x="946" y="-363.3" font-family="Times,serif" font-size="14.00">OP</text>
<polyline fill="none" stroke="black" points="785,-355.5 965,-355.5 "/>
<text text-anchor="middle" x="827" y="-340.3" font-family="Times,serif" font-size="14.00">пж&#45;пж</text>
<polyline fill="none" stroke="black" points="869,-332.5 869,-355.5 "/>
<text text-anchor="middle" x="917" y="-340.3" font-family="Times,serif" font-size="14.00">PLEASE</text>
</g>
<!-- node0x61d000014a80&#45;&gt;node0x61d000009680 -->
<g id="edge1" class="edge">
<title>node0x61d000014a80&#45;&gt;node0x61d000009680</title>
<path fill="none" stroke="red" d="M1027.89,-415.47C1001.28,-405.21 969.43,-392.92 941.71,-382.23"/>
<polygon fill="red" stroke="red" points="942.68,-378.86 932.09,-378.52 940.17,-385.39 942.68,-378.86"/>
</g>
<!-- node0x61d000014080 -->
<g id="node13" class="node">
<title>node0x61d000014080</title>
<path fill="peachpuff" stroke="black" d="M1220,-332.5C1220,-332.5 1386,-332.5 1386,-332.5 1392,-332.5 1398,-338.5 1398,-344.5 1398,-344.5 1398,-366.5 1398,-366.5 1398,-372.5 1392,-378.5 1386,-378.5 1386,-378.5 1220,-378.5 1220,-378.5 1214,-378.5 1208,-372.5 1208,-366.5 1208,-366.5 1208,-344.5 1208,-344.5 1208,-338.5 1214,-332.5 1220,-332.5"/>
<text text-anchor="middle" x="1281.5" y="-363.3" font-family="Times,serif" font-size="14.00">0x61d000014080</text>
<polyline fill="none" stroke="black" points="1355,-355.5 1355,-378.5 "/>
<text text-anchor="middle" x="1376.5" y="-363.3" font-family="Times,serif" font-size="14.00">OP</text>
<polyline fill="none" stroke="black" points="1208,-355.5 1398,-355.5 "/>
<text text-anchor="middle" x="1269" y="-340.3" font-family="Times,serif" font-size="14.00">много_сосать?</text>
<polyline fill="none" stroke="black" points="1330,-332.5 1330,-355.5 "/>
<text text-anchor="middle" x="1364" y="-340.3" font-family="Times,serif" font-size="14.00">WHILE</text>
</g>
<!-- node0x61d000014a80&#45;&gt;node0x61d000014080 -->
<g id="edge12" class="edge">
<title>node0x61d000014a80&#45;&gt;node0x61d000014080</title>
<path fill="none" stroke="green" d="M1144.28,-415.47C1172.03,-405.16 1205.26,-392.82 1234.12,-382.09"/>
<polygon fill="green" stroke="green" points="1235.58,-385.29 1243.73,-378.52 1233.14,-378.72 1235.58,-385.29"/>
</g>
<!-- node0x61d000006480 -->
<g id="node3" class="node">
<title>node0x61d000006480</title>
<path fill="peachpuff" stroke="black" d="M477,-249.5C477,-249.5 633,-249.5 633,-249.5 639,-249.5 645,-255.5 645,-261.5 645,-261.5 645,-283.5 645,-283.5 645,-289.5 639,-295.5 633,-295.5 633,-295.5 477,-295.5 477,-295.5 471,-295.5 465,-289.5 465,-283.5 465,-283.5 465,-261.5 465,-261.5 465,-255.5 471,-249.5 477,-249.5"/>
<text text-anchor="middle" x="536" y="-280.3" font-family="Times,serif" font-size="14.00">0x61d000006480</text>
<polyline fill="none" stroke="black" points="607,-272.5 607,-295.5 "/>
<text text-anchor="middle" x="626" y="-280.3" font-family="Times,serif" font-size="14.00">OP</text>
<polyline fill="none" stroke="black" points="465,-272.5 645,-272.5 "/>
<text text-anchor="middle" x="507" y="-257.3" font-family="Times,serif" font-size="14.00">пж&#45;пж</text>
<polyline fill="none" stroke="black" points="549,-249.5 549,-272.5 "/>
<text text-anchor="middle" x="597" y="-257.3" font-family="Times,serif" font-size="14.00">PLEASE</text>
</g>
<!-- node0x61d000009680&#45;&gt;node0x61d000006480 -->
<g id="edge2" class="edge">
<title>node0x61d000009680&#45;&gt;node0x61d000006480</title>
<path fill="none" stroke="red" d="M787.98,-332.47C745.83,-321.8 695.07,-308.95 651.71,-297.98"/>
<polygon fill="red" stroke="red" points="652.55,-294.58 642,-295.52 650.84,-301.37 652.55,-294.58"/>
</g>
<!-- node0x61d000008c80 -->
<g id="node10" class="node">
<title>node0x61d000008c80</title>
<path fill="peachpuff" stroke="black" d="M764,-249.5C764,-249.5 986,-249.5 986,-249.5 992,-249.5 998,-255.5 998,-261.5 998,-261.5 998,-283.5 998,-283.5 998,-289.5 992,-295.5 986,-295.5 986,-295.5 764,-295.5 764,-295.5 758,-295.5 752,-289.5 752,-283.5 752,-283.5 752,-261.5 752,-261.5 752,-255.5 758,-249.5 764,-249.5"/>
<text text-anchor="middle" x="839" y="-280.3" font-family="Times,serif" font-size="14.00">0x61d000008c80</text>
<polyline fill="none" stroke="black" points="926,-272.5 926,-295.5 "/>
<text text-anchor="middle" x="962" y="-280.3" font-family="Times,serif" font-size="14.00">OP</text>
<polyline fill="none" stroke="black" points="752,-272.5 998,-272.5 "/>
<text text-anchor="middle" x="791.5" y="-257.3" font-family="Times,serif" font-size="14.00">всего_за</text>
<polyline fill="none" stroke="black" points="831,-249.5 831,-272.5 "/>
<text text-anchor="middle" x="914.5" y="-257.3" font-family="Times,serif" font-size="14.00">DECL_ASSIGNMENT</text>
</g>
<!-- node0x61d000009680&#45;&gt;node0x61d000008c80 -->
<g id="edge9" class="edge">
<title>node0x61d000009680&#45;&gt;node0x61d000008c80</title>
<path fill="none" stroke="green" d="M875,-332.37C875,-324.15 875,-314.66 875,-305.73"/>
<polygon fill="green" stroke="green" points="878.5,-305.61 875,-295.61 871.5,-305.61 878.5,-305.61"/>
</g>
<!-- node0x61d000003280 -->
<g id="node4" class="node">
<title>node0x61d000003280</title>
<path fill="peachpuff" stroke="black" d="M180,-166.5C180,-166.5 402,-166.5 402,-166.5 408,-166.5 414,-172.5 414,-178.5 414,-178.5 414,-200.5 414,-200.5 414,-206.5 408,-212.5 402,-212.5 402,-212.5 180,-212.5 180,-212.5 174,-212.5 168,-206.5 168,-200.5 168,-200.5 168,-178.5 168,-178.5 168,-172.5 174,-166.5 180,-166.5"/>
<text text-anchor="middle" x="255.5" y="-197.3" font-family="Times,serif" font-size="14.00">0x61d000003280</text>
<polyline fill="none" stroke="black" points="343,-189.5 343,-212.5 "/>
<text text-anchor="middle" x="378.5" y="-197.3" font-family="Times,serif" font-size="14.00">OP</text>
<polyline fill="none" stroke="black" points="168,-189.5 414,-189.5 "/>
<text text-anchor="middle" x="207.5" y="-174.3" font-family="Times,serif" font-size="14.00">всего_за</text>
<polyline fill="none" stroke="black" points="247,-166.5 247,-189.5 "/>
<text text-anchor="middle" x="330.5" y="-174.3" font-family="Times,serif" font-size="14.00">DECL_ASSIGNMENT</text>
</g>
<!-- node0x61d000006480&#45;&gt;node0x61d000003280 -->
<g id="edge3" class="edge">
<title>node0x61d000006480&#45;&gt;node0x61d000003280</title>
<path fill="none" stroke="red" d="M483.21,-249.47C449.02,-238.98 407.96,-226.39 372.59,-215.53"/>
<polygon fill="red" stroke="red" points="373.36,-212.11 362.78,-212.52 371.31,-218.8 373.36,-212.11"/>
</g>
<!-- node0x61d000005a80 -->
<g id="node7" class="node">
<title>node0x61d000005a80</title>
<path fill="peachpuff" stroke="black" d="M444,-166.5C444,-166.5 666,-166.5 666,-166.5 672,-166.5 678,-172.5 678,-178.5 678,-178.5 678,-200.5 678,-200.5 678,-206.5 672,-212.5 666,-212.5 666,-212.5 444,-212.5 444,-212.5 438,-212.5 432,-206.5 432,-200.5 432,-200.5 432,-178.5 432,-178.5 432,-172.5 438,-166.5 444,-166.5"/>
<text text-anchor="middle" x="519" y="-197.3" font-family="Times,serif" font-size="14.00">0x61d000005a80</text>
<polyline fill="none" stroke="black" points="606,-189.5 606,-212.5 "/>
<text text-anchor="middle" x="642" y="-197.3" font-family="Times,serif" font-size="14.00">OP</text>
<polyline fill="none" stroke="black" points="432,-189.5 678,-189.5 "/>
<text text-anchor="middle" x="471.5" y="-174.3" font-family="Times,serif" font-size="14.00">всего_за</text>
<polyline fill="none" stroke="black" points="511,-166.5 511,-189.5 "/>
<text text-anchor="middle" x="594.5" y="-174.3" font-family="Times,serif" font-size="14.00">DECL_ASSIGNMENT</text>
</g>
<!-- node0x61d000006480&#45;&gt;node0x61d000005a80 -->
<g id="edge6" class="edge">
<title>node0x61d000006480&#45;&gt;node0x61d000005a80</title>
<path fill="none" stroke="green" d="M555,-249.37C555,-241.15 555,-231.66 555,-222.73"/>
<polygon fill="green" stroke="green" points="558.5,-222.61 555,-212.61 551.5,-222.61 558.5,-222.61"/>
</g>
<!-- node0x61d000001480 -->
<g id="node5" class="node">
<title>node0x61d000001480</title>
<path fill="peachpuff" stroke="black" d="M12,-83.5C12,-83.5 176,-83.5 176,-83.5 182,-83.5 188,-89.5 188,-95.5 188,-95.5 188,-117.5 188,-117.5 188,-123.5 182,-129.5 176,-129.5 176,-129.5 12,-129.5 12,-129.5 6,-129.5 0,-123.5 0,-117.5 0,-117.5 0,-95.5 0,-95.5 0,-89.5 6,-83.5 12,-83.5"/>
<text text-anchor="middle" x="71" y="-114.3" font-family="Times,serif" font-size="14.00">0x61d000001480</text>
<polyline fill="none" stroke="black" points="142,-106.5 142,-129.5 "/>
<text text-anchor="middle" x="165" y="-114.3" font-family="Times,serif" font-size="14.00">VAR</text>
<polyline fill="none" stroke="black" points="0,-106.5 188,-106.5 "/>
<text text-anchor="middle" x="76" y="-91.3" font-family="Times,serif" font-size="14.00">введённое_число</text>
<polyline fill="none" stroke="black" points="152,-83.5 152,-106.5 "/>
<text text-anchor="middle" x="170" y="-91.3" font-family="Times,serif" font-size="14.00">0</text>
</g>
<!-- node0x61d000003280&#45;&gt;node0x61d000001480 -->
<g id="edge4" class="edge">
<title>node0x61d000003280&#45;&gt;node0x61d000001480</title>
<path fill="none" stroke="red" d="M237.43,-166.47C212.57,-156.25 182.85,-144.03 156.92,-133.37"/>
<polygon fill="red" stroke="red" points="158.14,-130.09 147.56,-129.52 155.48,-136.56 158.14,-130.09"/>
</g>
<!-- node0x61d000002880 -->
<g id="node6" class="node">
<title>node0x61d000002880</title>
<path fill="pink" stroke="black" d="M218.5,-83.5C218.5,-83.5 391.5,-83.5 391.5,-83.5 397.5,-83.5 403.5,-89.5 403.5,-95.5 403.5,-95.5 403.5,-117.5 403.5,-117.5 403.5,-123.5 397.5,-129.5 391.5,-129.5 391.5,-129.5 218.5,-129.5 218.5,-129.5 212.5,-129.5 206.5,-123.5 206.5,-117.5 206.5,-117.5 206.5,-95.5 206.5,-95.5 206.5,-89.5 212.5,-83.5 218.5,-83.5"/>
<text text-anchor="middle" x="277.5" y="-114.3" font-family="Times,serif" font-size="14.00">0x61d000002880</text>
<polyline fill="none" stroke="black" points="348.5,-106.5 348.5,-129.5 "/>
<text text-anchor="middle" x="376" y="-114.3" font-family="Times,serif" font-size="14.00">NUM</text>
<polyline fill="none" stroke="black" points="206.5,-106.5 403.5,-106.5 "/>
<text text-anchor="middle" x="305" y="-91.3" font-family="Times,serif" font-size="14.00">6</text>
</g>
<!-- node0x61d000003280&#45;&gt;node0x61d000002880 -->
<g id="edge5" class="edge">
<title>node0x61d000003280&#45;&gt;node0x61d000002880</title>
<path fill="none" stroke="green" d="M294.83,-166.37C296.25,-158.15 297.89,-148.66 299.43,-139.73"/>
<polygon fill="green" stroke="green" points="302.92,-140.06 301.18,-129.61 296.03,-138.86 302.92,-140.06"/>
</g>
<!-- node0x61d000003c80 -->
<g id="node8" class="node">
<title>node0x61d000003c80</title>
<path fill="peachpuff" stroke="black" d="M461,-83.5C461,-83.5 623,-83.5 623,-83.5 629,-83.5 635,-89.5 635,-95.5 635,-95.5 635,-117.5 635,-117.5 635,-123.5 629,-129.5 623,-129.5 623,-129.5 461,-129.5 461,-129.5 455,-129.5 449,-123.5 449,-117.5 449,-117.5 449,-95.5 449,-95.5 449,-89.5 455,-83.5 461,-83.5"/>
<text text-anchor="middle" x="519" y="-114.3" font-family="Times,serif" font-size="14.00">0x61d000003c80</text>
<polyline fill="none" stroke="black" points="589,-106.5 589,-129.5 "/>
<text text-anchor="middle" x="612" y="-114.3" font-family="Times,serif" font-size="14.00">VAR</text>
<polyline fill="none" stroke="black" points="449,-106.5 635,-106.5 "/>
<text text-anchor="middle" x="513" y="-91.3" font-family="Times,serif" font-size="14.00">факториал</text>
<polyline fill="none" stroke="black" points="577,-83.5 577,-106.5 "/>
<text text-anchor="middle" x="606" y="-91.3" font-family="Times,serif" font-size="14.00">0</text>
</g>
<!-- node0x61d000005a80&#45;&gt;node0x61d000003c80 -->
<g id="edge7" class="edge">
<title>node0x61d000005a80&#45;&gt;node0x61d000003c80</title>
<path fill="none" stroke="red" d="M551.45,-166.37C550.13,-158.15 548.61,-148.66 547.17,-139.73"/>
<polygon fill="red" stroke="red" points="550.59,-138.93 545.55,-129.61 543.68,-140.04 550.59,-138.93"/>
</g>
<!-- node0x61d000005080 -->
<g id="node9" class="node">
<title>node0x61d000005080</title>
<path fill="pink" stroke="black" d="M665.5,-83.5C665.5,-83.5 838.5,-83.5 838.5,-83.5 844.5,-83.5 850.5,-89.5 850.5,-95.5 850.5,-95.5 850.5,-117.5 850.5,-117.5 850.5,-123.5 844.5,-129.5 838.5,-129.5 838.5,-129.5 665.5,-129.5 665.5,-129.5 659.5,-129.5 653.5,-123.5 653.5,-117.5 653.5,-117.5 653.5,-95.5 653.5,-95.5 653.5,-89.5 659.5,-83.5 665.5,-83.5"/>
<text text-anchor="middle" x="724.5" y="-114.3" font-family="Times,serif" font-size="14.00">0x61d000005080</text>
<polyline fill="none" stroke="black" points="795.5,-106.5 795.5,-129.5 "/>
<text text-anchor="middle" x="823" y="-114.3" font-family="Times,serif" font-size="14.00">NUM</text>
<polyline fill="none" stroke="black" points="653.5,-106.5 850.5,-106.5 "/>
<text text-anchor="middle" x="752" y="-91.3" font-family="Times,serif" font-size="14.00">1</text>
</g>
<!-- node0x61d000005a80&#45;&gt;node0x61d000005080 -->
<g id="edge8" class="edge">
<title>node0x61d000005a80&#45;&gt;node0x61d000005080</title>
<path fill="none" stroke="green" d="M608.57,-166.47C633.43,-156.25 663.15,-144.03 689.08,-133.37"/>
<polygon fill="green" stroke="green" points="690.52,-136.56 698.44,-129.52 687.86,-130.09 690.52,-136.56"/>
</g>
<!-- node0x61d000006e80 -->
<g id="node11" class="node">
<title>node0x61d000006e80</title>
<path fill="peachpuff" stroke="black" d="M708.5,-166.5C708.5,-166.5 871.5,-166.5 871.5,-166.5 877.5,-166.5 883.5,-172.5 883.5,-178.5 883.5,-178.5 883.5,-200.5 883.5,-200.5 883.5,-206.5 877.5,-212.5 871.5,-212.5 871.5,-212.5 708.5,-212.5 708.5,-212.5 702.5,-212.5 696.5,-206.5 696.5,-200.5 696.5,-200.5 696.5,-178.5 696.5,-178.5 696.5,-172.5 702.5,-166.5 708.5,-166.5"/>
<text text-anchor="middle" x="767" y="-197.3" font-family="Times,serif" font-size="14.00">0x61d000006e80</text>
<polyline fill="none" stroke="black" points="837.5,-189.5 837.5,-212.5 "/>
<text text-anchor="middle" x="860.5" y="-197.3" font-family="Times,serif" font-size="14.00">VAR</text>
<polyline fill="none" stroke="black" points="696.5,-189.5 883.5,-189.5 "/>
<text text-anchor="middle" x="755.5" y="-174.3" font-family="Times,serif" font-size="14.00">счётчик</text>
<polyline fill="none" stroke="black" points="814.5,-166.5 814.5,-189.5 "/>
<text text-anchor="middle" x="849" y="-174.3" font-family="Times,serif" font-size="14.00">0</text>
</g>
<!-- node0x61d000008c80&#45;&gt;node0x61d000006e80 -->
<g id="edge10" class="edge">
<title>node0x61d000008c80&#45;&gt;node0x61d000006e80</title>
<path fill="none" stroke="red" d="M851.77,-249.37C842.12,-240.17 830.79,-229.37 820.48,-219.55"/>
<polygon fill="red" stroke="red" points="822.85,-216.97 813.2,-212.61 818.02,-222.04 822.85,-216.97"/>
</g>
<!-- node0x61d000008280 -->
<g id="node12" class="node">
<title>node0x61d000008280</title>
<path fill="pink" stroke="black" d="M913.5,-166.5C913.5,-166.5 1086.5,-166.5 1086.5,-166.5 1092.5,-166.5 1098.5,-172.5 1098.5,-178.5 1098.5,-178.5 1098.5,-200.5 1098.5,-200.5 1098.5,-206.5 1092.5,-212.5 1086.5,-212.5 1086.5,-212.5 913.5,-212.5 913.5,-212.5 907.5,-212.5 901.5,-206.5 901.5,-200.5 901.5,-200.5 901.5,-178.5 901.5,-178.5 901.5,-172.5 907.5,-166.5 913.5,-166.5"/>
<text text-anchor="middle" x="972.5" y="-197.3" font-family="Times,serif" font-size="14.00">0x61d000008280</text>
<polyline fill="none" stroke="black" points="1043.5,-189.5 1043.5,-212.5 "/>
<text text-anchor="middle" x="1071" y="-197.3" font-family="Times,serif" font-size="14.00">NUM</text>
<polyline fill="none" stroke="black" points="901.5,-189.5 1098.5,-189.5 "/>
<text text-anchor="middle" x="1000" y="-174.3" font-family="Times,serif" font-size="14.00">2</text>
</g>
<!-- node0x61d000008c80&#45;&gt;node0x61d000008280 -->
<g id="edge11" class="edge">
<title>node0x61d000008c80&#45;&gt;node0x61d000008280</title>
<path fill="none" stroke="green" d="M909.16,-249.37C924.04,-239.72 941.64,-228.32 957.37,-218.13"/>
<polygon fill="green" stroke="green" points="959.4,-220.98 965.88,-212.61 955.59,-215.11 959.4,-220.98"/>
</g>
<!-- node0x61d00000b480 -->
<g id="node14" class="node">
<title>node0x61d00000b480</title>
<path fill="peachpuff" stroke="black" d="M1206,-249.5C1206,-249.5 1400,-249.5 1400,-249.5 1406,-249.5 1412,-255.5 1412,-261.5 1412,-261.5 1412,-283.5 1412,-283.5 1412,-289.5 1406,-295.5 1400,-295.5 1400,-295.5 1206,-295.5 1206,-295.5 1200,-295.5 1194,-289.5 1194,-283.5 1194,-283.5 1194,-261.5 1194,-261.5 1194,-255.5 1200,-249.5 1206,-249.5"/>
<text text-anchor="middle" x="1274.5" y="-280.3" font-family="Times,serif" font-size="14.00">0x61d00000b480</text>
<polyline fill="none" stroke="black" points="1355,-272.5 1355,-295.5 "/>
<text text-anchor="middle" x="1383.5" y="-280.3" font-family="Times,serif" font-size="14.00">OP</text>
<polyline fill="none" stroke="black" points="1194,-272.5 1412,-272.5 "/>
<text text-anchor="middle" x="1264.5" y="-257.3" font-family="Times,serif" font-size="14.00">тут_мб_дороже:&#45;&#45;</text>
<polyline fill="none" stroke="black" points="1335,-249.5 1335,-272.5 "/>
<text text-anchor="middle" x="1373.5" y="-257.3" font-family="Times,serif" font-size="14.00">LESSEQ</text>
</g>
<!-- node0x61d000014080&#45;&gt;node0x61d00000b480 -->
<g id="edge13" class="edge">
<title>node0x61d000014080&#45;&gt;node0x61d00000b480</title>
<path fill="none" stroke="red" d="M1303,-332.37C1303,-324.15 1303,-314.66 1303,-305.73"/>
<polygon fill="red" stroke="red" points="1306.5,-305.61 1303,-295.61 1299.5,-305.61 1306.5,-305.61"/>
</g>
<!-- node0x61d000013680 -->
<g id="node17" class="node">
<title>node0x61d000013680</title>
<path fill="peachpuff" stroke="black" d="M1535,-249.5C1535,-249.5 1691,-249.5 1691,-249.5 1697,-249.5 1703,-255.5 1703,-261.5 1703,-261.5 1703,-283.5 1703,-283.5 1703,-289.5 1697,-295.5 1691,-295.5 1691,-295.5 1535,-295.5 1535,-295.5 1529,-295.5 1523,-289.5 1523,-283.5 1523,-283.5 1523,-261.5 1523,-261.5 1523,-255.5 1529,-249.5 1535,-249.5"/>
<text text-anchor="middle" x="1594" y="-280.3" font-family="Times,serif" font-size="14.00">0x61d000013680</text>
<polyline fill="none" stroke="black" points="1665,-272.5 1665,-295.5 "/>
<text text-anchor="middle" x="1684" y="-280.3" font-family="Times,serif" font-size="14.00">OP</text>
<polyline fill="none" stroke="black" points="1523,-272.5 1703,-272.5 "/>
<text text-anchor="middle" x="1577.5" y="-257.3" font-family="Times,serif" font-size="14.00">не_сосать?</text>
<polyline fill="none" stroke="black" points="1632,-249.5 1632,-272.5 "/>
<text text-anchor="middle" x="1667.5" y="-257.3" font-family="Times,serif" font-size="14.00">ELSE</text>
</g>
<!-- node0x61d000014080&#45;&gt;node0x61d000013680 -->
<g id="edge16" class="edge">
<title>node0x61d000014080&#45;&gt;node0x61d000013680</title>
<path fill="none" stroke="green" d="M1387.3,-332.47C1427.97,-321.85 1476.9,-309.06 1518.79,-298.12"/>
<polygon fill="green" stroke="green" points="1519.93,-301.44 1528.72,-295.52 1518.16,-294.66 1519.93,-301.44"/>
</g>
<!-- node0x61d00000a080 -->
<g id="node15" class="node">
<title>node0x61d00000a080</title>
<path fill="peachpuff" stroke="black" d="M1128.5,-166.5C1128.5,-166.5 1291.5,-166.5 1291.5,-166.5 1297.5,-166.5 1303.5,-172.5 1303.5,-178.5 1303.5,-178.5 1303.5,-200.5 1303.5,-200.5 1303.5,-206.5 1297.5,-212.5 1291.5,-212.5 1291.5,-212.5 1128.5,-212.5 1128.5,-212.5 1122.5,-212.5 1116.5,-206.5 1116.5,-200.5 1116.5,-200.5 1116.5,-178.5 1116.5,-178.5 1116.5,-172.5 1122.5,-166.5 1128.5,-166.5"/>
<text text-anchor="middle" x="1187" y="-197.3" font-family="Times,serif" font-size="14.00">0x61d00000a080</text>
<polyline fill="none" stroke="black" points="1257.5,-189.5 1257.5,-212.5 "/>
<text text-anchor="middle" x="1280.5" y="-197.3" font-family="Times,serif" font-size="14.00">VAR</text>
<polyline fill="none" stroke="black" points="1116.5,-189.5 1303.5,-189.5 "/>
<text text-anchor="middle" x="1175.5" y="-174.3" font-family="Times,serif" font-size="14.00">счётчик</text>
<polyline fill="none" stroke="black" points="1234.5,-166.5 1234.5,-189.5 "/>
<text text-anchor="middle" x="1269" y="-174.3" font-family="Times,serif" font-size="14.00">0</text>
</g>
<!-- node0x61d00000b480&#45;&gt;node0x61d00000a080 -->
<g id="edge14" class="edge">
<title>node0x61d00000b480&#45;&gt;node0x61d00000a080</title>
<path fill="none" stroke="red" d="M1277.59,-249.37C1266.93,-240.08 1254.39,-229.16 1243.02,-219.26"/>
<polygon fill="red" stroke="red" points="1245.22,-216.54 1235.38,-212.61 1240.62,-221.81 1245.22,-216.54"/>
</g>
<!-- node0x61d00000aa80 -->
<g id="node16" class="node">
<title>node0x61d00000aa80</title>
<path fill="peachpuff" stroke="black" d="M1333,-166.5C1333,-166.5 1495,-166.5 1495,-166.5 1501,-166.5 1507,-172.5 1507,-178.5 1507,-178.5 1507,-200.5 1507,-200.5 1507,-206.5 1501,-212.5 1495,-212.5 1495,-212.5 1333,-212.5 1333,-212.5 1327,-212.5 1321,-206.5 1321,-200.5 1321,-200.5 1321,-178.5 1321,-178.5 1321,-172.5 1327,-166.5 1333,-166.5"/>
<text text-anchor="middle" x="1391" y="-197.3" font-family="Times,serif" font-size="14.00">0x61d00000aa80</text>
<polyline fill="none" stroke="black" points="1461,-189.5 1461,-212.5 "/>
<text text-anchor="middle" x="1484" y="-197.3" font-family="Times,serif" font-size="14.00">VAR</text>
<polyline fill="none" stroke="black" points="1321,-189.5 1507,-189.5 "/>
<text text-anchor="middle" x="1396.5" y="-174.3" font-family="Times,serif" font-size="14.00">введённое_число</text>
<polyline fill="none" stroke="black" points="1472,-166.5 1472,-189.5 "/>
<text text-anchor="middle" x="1489.5" y="-174.3" font-family="Times,serif" font-size="14.00">0</text>
</g>
<!-- node0x61d00000b480&#45;&gt;node0x61d00000aa80 -->
<g id="edge15" class="edge">
<title>node0x61d00000b480&#45;&gt;node0x61d00000aa80</title>
<path fill="none" stroke="green" d="M1333.33,-249.37C1346.3,-239.9 1361.6,-228.74 1375.37,-218.69"/>
<polygon fill="green" stroke="green" points="1377.69,-221.33 1383.71,-212.61 1373.56,-215.67 1377.69,-221.33"/>
</g>
<!-- node0x61d00000fa80 -->
<g id="node18" class="node">
<title>node0x61d00000fa80</title>
<path fill="peachpuff" stroke="black" d="M1537.5,-166.5C1537.5,-166.5 1688.5,-166.5 1688.5,-166.5 1694.5,-166.5 1700.5,-172.5 1700.5,-178.5 1700.5,-178.5 1700.5,-200.5 1700.5,-200.5 1700.5,-206.5 1694.5,-212.5 1688.5,-212.5 1688.5,-212.5 1537.5,-212.5 1537.5,-212.5 1531.5,-212.5 1525.5,-206.5 1525.5,-200.5 1525.5,-200.5 1525.5,-178.5 1525.5,-178.5 1525.5,-172.5 1531.5,-166.5 1537.5,-166.5"/>
<text text-anchor="middle" x="1594" y="-197.3" font-family="Times,serif" font-size="14.00">0x61d00000fa80</text>
<polyline fill="none" stroke="black" points="1662.5,-189.5 1662.5,-212.5 "/>
<text text-anchor="middle" x="1681.5" y="-197.3" font-family="Times,serif" font-size="14.00">OP</text>
<polyline fill="none" stroke="black" points="1525.5,-189.5 1700.5,-189.5 "/>
<text text-anchor="middle" x="1566.5" y="-174.3" font-family="Times,serif" font-size="14.00">пж&#45;пж</text>
<polyline fill="none" stroke="black" points="1607.5,-166.5 1607.5,-189.5 "/>
<text text-anchor="middle" x="1654" y="-174.3" font-family="Times,serif" font-size="14.00">PLEASE</text>
</g>
<!-- node0x61d000013680&#45;&gt;node0x61d00000fa80 -->
<g id="edge17" class="edge">
<title>node0x61d000013680&#45;&gt;node0x61d00000fa80</title>
<path fill="none" stroke="red" d="M1613,-249.37C1613,-241.15 1613,-231.66 1613,-222.73"/>
<polygon fill="red" stroke="red" points="1616.5,-222.61 1613,-212.61 1609.5,-222.61 1616.5,-222.61"/>
</g>
<!-- node0x61d000012280 -->
<g id="node25" class="node">
<title>node0x61d000012280</title>
<path fill="peachpuff" stroke="black" d="M1763,-166.5C1763,-166.5 1937,-166.5 1937,-166.5 1943,-166.5 1949,-172.5 1949,-178.5 1949,-178.5 1949,-200.5 1949,-200.5 1949,-206.5 1943,-212.5 1937,-212.5 1937,-212.5 1763,-212.5 1763,-212.5 1757,-212.5 1751,-206.5 1751,-200.5 1751,-200.5 1751,-178.5 1751,-178.5 1751,-172.5 1757,-166.5 1763,-166.5"/>
<text text-anchor="middle" x="1826.5" y="-197.3" font-family="Times,serif" font-size="14.00">0x61d000012280</text>
<polyline fill="none" stroke="black" points="1902,-189.5 1902,-212.5 "/>
<text text-anchor="middle" x="1925.5" y="-197.3" font-family="Times,serif" font-size="14.00">OP</text>
<polyline fill="none" stroke="black" points="1751,-189.5 1949,-189.5 "/>
<text text-anchor="middle" x="1790.5" y="-174.3" font-family="Times,serif" font-size="14.00">всего_за</text>
<polyline fill="none" stroke="black" points="1830,-166.5 1830,-189.5 "/>
<text text-anchor="middle" x="1889.5" y="-174.3" font-family="Times,serif" font-size="14.00">ASSIGNMENT</text>
</g>
<!-- node0x61d000013680&#45;&gt;node0x61d000012280 -->
<g id="edge24" class="edge">
<title>node0x61d000013680&#45;&gt;node0x61d000012280</title>
<path fill="none" stroke="green" d="M1677.45,-249.47C1707.88,-239.07 1744.37,-226.6 1775.94,-215.81"/>
<polygon fill="green" stroke="green" points="1777.23,-219.07 1785.56,-212.52 1774.97,-212.44 1777.23,-219.07"/>
</g>
<!-- node0x61d00000d280 -->
<g id="node19" class="node">
<title>node0x61d00000d280</title>
<path fill="peachpuff" stroke="black" d="M1184,-83.5C1184,-83.5 1458,-83.5 1458,-83.5 1464,-83.5 1470,-89.5 1470,-95.5 1470,-95.5 1470,-117.5 1470,-117.5 1470,-123.5 1464,-129.5 1458,-129.5 1458,-129.5 1184,-129.5 1184,-129.5 1178,-129.5 1172,-123.5 1172,-117.5 1172,-117.5 1172,-95.5 1172,-95.5 1172,-89.5 1178,-83.5 1184,-83.5"/>
<text text-anchor="middle" x="1272.5" y="-114.3" font-family="Times,serif" font-size="14.00">0x61d00000d280</text>
<polyline fill="none" stroke="black" points="1373,-106.5 1373,-129.5 "/>
<text text-anchor="middle" x="1421.5" y="-114.3" font-family="Times,serif" font-size="14.00">OP</text>
<polyline fill="none" stroke="black" points="1172,-106.5 1470,-106.5 "/>
<text text-anchor="middle" x="1240.5" y="-91.3" font-family="Times,serif" font-size="14.00">очень_подороже</text>
<polyline fill="none" stroke="black" points="1309,-83.5 1309,-106.5 "/>
<text text-anchor="middle" x="1389.5" y="-91.3" font-family="Times,serif" font-size="14.00">MUL_ASSIGNMENT</text>
</g>
<!-- node0x61d00000fa80&#45;&gt;node0x61d00000d280 -->
<g id="edge18" class="edge">
<title>node0x61d00000fa80&#45;&gt;node0x61d00000d280</title>
<path fill="none" stroke="red" d="M1533.6,-166.47C1495.45,-155.89 1449.59,-143.17 1410.24,-132.26"/>
<polygon fill="red" stroke="red" points="1410.96,-128.82 1400.39,-129.52 1409.09,-135.57 1410.96,-128.82"/>
</g>
<!-- node0x61d00000f080 -->
<g id="node22" class="node">
<title>node0x61d00000f080</title>
<path fill="peachpuff" stroke="black" d="M1499.5,-83.5C1499.5,-83.5 1726.5,-83.5 1726.5,-83.5 1732.5,-83.5 1738.5,-89.5 1738.5,-95.5 1738.5,-95.5 1738.5,-117.5 1738.5,-117.5 1738.5,-123.5 1732.5,-129.5 1726.5,-129.5 1726.5,-129.5 1499.5,-129.5 1499.5,-129.5 1493.5,-129.5 1487.5,-123.5 1487.5,-117.5 1487.5,-117.5 1487.5,-95.5 1487.5,-95.5 1487.5,-89.5 1493.5,-83.5 1499.5,-83.5"/>
<text text-anchor="middle" x="1575" y="-114.3" font-family="Times,serif" font-size="14.00">0x61d00000f080</text>
<polyline fill="none" stroke="black" points="1662.5,-106.5 1662.5,-129.5 "/>
<text text-anchor="middle" x="1700.5" y="-114.3" font-family="Times,serif" font-size="14.00">OP</text>
<polyline fill="none" stroke="black" points="1487.5,-106.5 1738.5,-106.5 "/>
<text text-anchor="middle" x="1532" y="-91.3" font-family="Times,serif" font-size="14.00">подороже</text>
<polyline fill="none" stroke="black" points="1576.5,-83.5 1576.5,-106.5 "/>
<text text-anchor="middle" x="1657.5" y="-91.3" font-family="Times,serif" font-size="14.00">SUM_ASSIGNMENT</text>
</g>
<!-- node0x61d00000fa80&#45;&gt;node0x61d00000f080 -->
<g id="edge21" class="edge">
<title>node0x61d00000fa80&#45;&gt;node0x61d00000f080</title>
<path fill="none" stroke="green" d="M1613,-166.37C1613,-158.15 1613,-148.66 1613,-139.73"/>
<polygon fill="green" stroke="green" points="1616.5,-139.61 1613,-129.61 1609.5,-139.61 1616.5,-139.61"/>
</g>
<!-- node0x61d00000be80 -->
<g id="node20" class="node">
<title>node0x61d00000be80</title>
<path fill="peachpuff" stroke="black" d="M1057.5,-0.5C1057.5,-0.5 1220.5,-0.5 1220.5,-0.5 1226.5,-0.5 1232.5,-6.5 1232.5,-12.5 1232.5,-12.5 1232.5,-34.5 1232.5,-34.5 1232.5,-40.5 1226.5,-46.5 1220.5,-46.5 1220.5,-46.5 1057.5,-46.5 1057.5,-46.5 1051.5,-46.5 1045.5,-40.5 1045.5,-34.5 1045.5,-34.5 1045.5,-12.5 1045.5,-12.5 1045.5,-6.5 1051.5,-0.5 1057.5,-0.5"/>
<text text-anchor="middle" x="1116" y="-31.3" font-family="Times,serif" font-size="14.00">0x61d00000be80</text>
<polyline fill="none" stroke="black" points="1186.5,-23.5 1186.5,-46.5 "/>
<text text-anchor="middle" x="1209.5" y="-31.3" font-family="Times,serif" font-size="14.00">VAR</text>
<polyline fill="none" stroke="black" points="1045.5,-23.5 1232.5,-23.5 "/>
<text text-anchor="middle" x="1109.5" y="-8.3" font-family="Times,serif" font-size="14.00">факториал</text>
<polyline fill="none" stroke="black" points="1173.5,-0.5 1173.5,-23.5 "/>
<text text-anchor="middle" x="1203" y="-8.3" font-family="Times,serif" font-size="14.00">0</text>
</g>
<!-- node0x61d00000d280&#45;&gt;node0x61d00000be80 -->
<g id="edge19" class="edge">
<title>node0x61d00000d280&#45;&gt;node0x61d00000be80</title>
<path fill="none" stroke="red" d="M1271.27,-83.37C1248.6,-73.28 1221.59,-61.26 1197.91,-50.72"/>
<polygon fill="red" stroke="red" points="1199.23,-47.48 1188.67,-46.61 1196.39,-53.87 1199.23,-47.48"/>
</g>
<!-- node0x61d00000c880 -->
<g id="node21" class="node">
<title>node0x61d00000c880</title>
<path fill="peachpuff" stroke="black" d="M1262,-0.5C1262,-0.5 1424,-0.5 1424,-0.5 1430,-0.5 1436,-6.5 1436,-12.5 1436,-12.5 1436,-34.5 1436,-34.5 1436,-40.5 1430,-46.5 1424,-46.5 1424,-46.5 1262,-46.5 1262,-46.5 1256,-46.5 1250,-40.5 1250,-34.5 1250,-34.5 1250,-12.5 1250,-12.5 1250,-6.5 1256,-0.5 1262,-0.5"/>
<text text-anchor="middle" x="1320" y="-31.3" font-family="Times,serif" font-size="14.00">0x61d00000c880</text>
<polyline fill="none" stroke="black" points="1390,-23.5 1390,-46.5 "/>
<text text-anchor="middle" x="1413" y="-31.3" font-family="Times,serif" font-size="14.00">VAR</text>
<polyline fill="none" stroke="black" points="1250,-23.5 1436,-23.5 "/>
<text text-anchor="middle" x="1309" y="-8.3" font-family="Times,serif" font-size="14.00">счётчик</text>
<polyline fill="none" stroke="black" points="1368,-0.5 1368,-23.5 "/>
<text text-anchor="middle" x="1402" y="-8.3" font-family="Times,serif" font-size="14.00">0</text>
</g>
<!-- node0x61d00000d280&#45;&gt;node0x61d00000c880 -->
<g id="edge20" class="edge">
<title>node0x61d00000d280&#45;&gt;node0x61d00000c880</title>
<path fill="none" stroke="green" d="M1327.01,-83.37C1329.27,-75.06 1331.88,-65.45 1334.33,-56.43"/>
<polygon fill="green" stroke="green" points="1337.75,-57.17 1337,-46.61 1331,-55.34 1337.75,-57.17"/>
</g>
<!-- node0x61d00000dc80 -->
<g id="node23" class="node">
<title>node0x61d00000dc80</title>
<path fill="peachpuff" stroke="black" d="M1510,-0.5C1510,-0.5 1672,-0.5 1672,-0.5 1678,-0.5 1684,-6.5 1684,-12.5 1684,-12.5 1684,-34.5 1684,-34.5 1684,-40.5 1678,-46.5 1672,-46.5 1672,-46.5 1510,-46.5 1510,-46.5 1504,-46.5 1498,-40.5 1498,-34.5 1498,-34.5 1498,-12.5 1498,-12.5 1498,-6.5 1504,-0.5 1510,-0.5"/>
<text text-anchor="middle" x="1568" y="-31.3" font-family="Times,serif" font-size="14.00">0x61d00000dc80</text>
<polyline fill="none" stroke="black" points="1638,-23.5 1638,-46.5 "/>
<text text-anchor="middle" x="1661" y="-31.3" font-family="Times,serif" font-size="14.00">VAR</text>
<polyline fill="none" stroke="black" points="1498,-23.5 1684,-23.5 "/>
<text text-anchor="middle" x="1557" y="-8.3" font-family="Times,serif" font-size="14.00">счётчик</text>
<polyline fill="none" stroke="black" points="1616,-0.5 1616,-23.5 "/>
<text text-anchor="middle" x="1650" y="-8.3" font-family="Times,serif" font-size="14.00">0</text>
</g>
<!-- node0x61d00000f080&#45;&gt;node0x61d00000dc80 -->
<g id="edge22" class="edge">
<title>node0x61d00000f080&#45;&gt;node0x61d00000dc80</title>
<path fill="none" stroke="red" d="M1606.99,-83.37C1604.73,-75.06 1602.12,-65.45 1599.67,-56.43"/>
<polygon fill="red" stroke="red" points="1603,-55.34 1597,-46.61 1596.25,-57.17 1603,-55.34"/>
</g>
<!-- node0x61d00000e680 -->
<g id="node24" class="node">
<title>node0x61d00000e680</title>
<path fill="pink" stroke="black" d="M1714,-0.5C1714,-0.5 1886,-0.5 1886,-0.5 1892,-0.5 1898,-6.5 1898,-12.5 1898,-12.5 1898,-34.5 1898,-34.5 1898,-40.5 1892,-46.5 1886,-46.5 1886,-46.5 1714,-46.5 1714,-46.5 1708,-46.5 1702,-40.5 1702,-34.5 1702,-34.5 1702,-12.5 1702,-12.5 1702,-6.5 1708,-0.5 1714,-0.5"/>
<text text-anchor="middle" x="1772.5" y="-31.3" font-family="Times,serif" font-size="14.00">0x61d00000e680</text>
<polyline fill="none" stroke="black" points="1843,-23.5 1843,-46.5 "/>
<text text-anchor="middle" x="1870.5" y="-31.3" font-family="Times,serif" font-size="14.00">NUM</text>
<polyline fill="none" stroke="black" points="1702,-23.5 1898,-23.5 "/>
<text text-anchor="middle" x="1800" y="-8.3" font-family="Times,serif" font-size="14.00">1</text>
</g>
<!-- node0x61d00000f080&#45;&gt;node0x61d00000e680 -->
<g id="edge23" class="edge">
<title>node0x61d00000f080&#45;&gt;node0x61d00000e680</title>
<path fill="none" stroke="green" d="M1664.1,-83.37C1687.39,-73.28 1715.14,-61.26 1739.47,-50.72"/>
<polygon fill="green" stroke="green" points="1741.18,-53.79 1748.96,-46.61 1738.4,-47.37 1741.18,-53.79"/>
</g>
<!-- node0x61d000010e80 -->
<g id="node26" class="node">
<title>node0x61d000010e80</title>
<path fill="peachpuff" stroke="black" d="M1768.5,-83.5C1768.5,-83.5 1931.5,-83.5 1931.5,-83.5 1937.5,-83.5 1943.5,-89.5 1943.5,-95.5 1943.5,-95.5 1943.5,-117.5 1943.5,-117.5 1943.5,-123.5 1937.5,-129.5 1931.5,-129.5 1931.5,-129.5 1768.5,-129.5 1768.5,-129.5 1762.5,-129.5 1756.5,-123.5 1756.5,-117.5 1756.5,-117.5 1756.5,-95.5 1756.5,-95.5 1756.5,-89.5 1762.5,-83.5 1768.5,-83.5"/>
<text text-anchor="middle" x="1827" y="-114.3" font-family="Times,serif" font-size="14.00">0x61d000010e80</text>
<polyline fill="none" stroke="black" points="1897.5,-106.5 1897.5,-129.5 "/>
<text text-anchor="middle" x="1920.5" y="-114.3" font-family="Times,serif" font-size="14.00">VAR</text>
<polyline fill="none" stroke="black" points="1756.5,-106.5 1943.5,-106.5 "/>
<text text-anchor="middle" x="1820.5" y="-91.3" font-family="Times,serif" font-size="14.00">факториал</text>
<polyline fill="none" stroke="black" points="1884.5,-83.5 1884.5,-106.5 "/>
<text text-anchor="middle" x="1914" y="-91.3" font-family="Times,serif" font-size="14.00">0</text>
</g>
<!-- node0x61d000012280&#45;&gt;node0x61d000010e80 -->
<g id="edge25" class="edge">
<title>node0x61d000012280&#45;&gt;node0x61d000010e80</title>
<path fill="none" stroke="red" d="M1850,-166.37C1850,-158.15 1850,-148.66 1850,-139.73"/>
<polygon fill="red" stroke="red" points="1853.5,-139.61 1850,-129.61 1846.5,-139.61 1853.5,-139.61"/>
</g>
<!-- node0x61d000011880 -->
<g id="node27" class="node">
<title>node0x61d000011880</title>
<path fill="pink" stroke="black" d="M1973.5,-83.5C1973.5,-83.5 2146.5,-83.5 2146.5,-83.5 2152.5,-83.5 2158.5,-89.5 2158.5,-95.5 2158.5,-95.5 2158.5,-117.5 2158.5,-117.5 2158.5,-123.5 2152.5,-129.5 2146.5,-129.5 2146.5,-129.5 1973.5,-129.5 1973.5,-129.5 1967.5,-129.5 1961.5,-123.5 1961.5,-117.5 1961.5,-117.5 1961.5,-95.5 1961.5,-95.5 1961.5,-89.5 1967.5,-83.5 1973.5,-83.5"/>
<text text-anchor="middle" x="2032.5" y="-114.3" font-family="Times,serif" font-size="14.00">0x61d000011880</text>
<polyline fill="none" stroke="black" points="2103.5,-106.5 2103.5,-129.5 "/>
<text text-anchor="middle" x="2131" y="-114.3" font-family="Times,serif" font-size="14.00">NUM</text>
<polyline fill="none" stroke="black" points="1961.5,-106.5 2158.5,-106.5 "/>
<text text-anchor="middle" x="2060" y="-91.3" font-family="Times,serif" font-size="14.00">0</text>
</g>
<!-- node0x61d000012280&#45;&gt;node0x61d000011880 -->
<g id="edge26" class="edge">
<title>node0x61d000012280&#45;&gt;node0x61d000011880</title>
<path fill="none" stroke="green" d="M1907.11,-166.47C1933.72,-156.21 1965.57,-143.92 1993.29,-133.23"/>
<polygon fill="green" stroke="green" points="1994.83,-136.39 2002.91,-129.52 1992.32,-129.86 1994.83,-136.39"/>
</g>
</g>
</svg>
